# Blender v2.78 (sub 0) OBJ File: ''
# www.blender.org
mtllib simple_yacht.mtl
o Plane
v -1.000000 0.000000 1.000000
v 1.000000 0.000000 1.000000
v -1.000000 0.000000 -1.000000
v 1.000000 0.000000 -1.000000
v 0.000000 0.000000 2.500000
v 0.000000 0.000000 -2.500000
v -1.000000 0.292811 -1.000000
v -1.000000 0.292811 1.000000
v 0.000000 0.500000 2.800000
v 1.000000 0.292811 1.000000
v 1.000000 0.292811 -1.000000
v 0.000000 0.500000 -2.800000
v 1.000000 0.292811 0.000000
v -1.000000 0.292811 0.000000
v 0.000000 0.292811 0.000000
v -0.500000 0.292811 0.000000
v 0.500000 0.292811 0.000000
v 0.500000 0.292810 -0.500000
v -0.500000 0.292810 -0.500000
v 0.200000 0.552854 0.000000
v 0.200000 0.552853 -0.200000
v -0.200000 0.552853 -0.200000
v -0.200000 0.552854 0.000000
v 0.500000 0.292811 0.500000
v -0.500000 0.292811 0.500000
v 0.200000 0.552854 0.200000
v -0.200000 0.552854 0.200000
v 0.200000 1.120592 -0.000002
v 0.200000 1.120590 -0.200002
v -0.200000 1.120590 -0.200002
v -0.200000 1.120592 -0.000002
v 0.200000 1.120592 0.199998
v -0.200000 1.120592 0.199998
v 0.200000 2.241243 -0.000006
v 0.200000 2.241241 -0.200006
v -0.200000 2.241241 -0.200006
v -0.200000 2.241243 -0.000006
v 0.200000 2.241243 0.199994
v -0.200000 2.241243 0.199994
v -0.050000 1.120590 -0.200002
v 0.050000 1.120590 -0.200002
v 0.050000 2.241241 -0.200006
v -0.050000 2.241241 -0.200006
v 0.050000 1.120590 -0.200002
v 0.050000 2.241241 -0.200006
v 0.050000 1.120585 -1.611272
v -0.050000 1.120585 -1.611272
v 0.050000 1.120585 -1.611272
vn 0.0000 -1.0000 0.0000
vn 0.0000 1.0000 0.0000
vn 0.8208 -0.2939 0.4898
vn -0.8321 0.0000 0.5547
vn 1.0000 0.0000 0.0000
vn -1.0000 0.0000 0.0000
vn 0.8321 0.0000 -0.5547
vn -0.8208 -0.2939 -0.4898
vn -0.6550 0.7556 -0.0000
vn 0.6550 0.7556 -0.0000
vn 0.0000 0.7556 -0.6550
vn 0.0000 0.7556 0.6550
vn 0.0000 0.0000 1.0000
vn 0.0000 -0.0000 -1.0000
vn 0.0000 0.7831 -0.6219
vn 0.0000 0.9934 -0.1143
vn 0.0000 0.9934 0.1143
vn 0.8321 0.0000 0.5547
vn -0.8208 -0.2939 0.4898
vn 0.8208 -0.2939 -0.4898
vn -0.8321 0.0000 -0.5547
usemtl None
s off
f 3//1 2//1 1//1
f 13//2 7//2 14//2
f 5//3 10//3 9//3
f 5//4 8//4 1//4
f 4//5 13//5 2//5
f 1//6 14//6 3//6
f 6//7 11//7 4//7
f 6//8 7//8 12//8
f 19//2 17//2 18//2
f 20//5 32//5 26//5
f 16//9 22//9 19//9
f 21//10 17//10 18//10
f 26//10 17//10 20//10
f 22//11 18//11 19//11
f 26//12 25//12 24//12
f 16//9 27//9 23//9
f 31//6 36//6 30//6
f 16//2 24//2 17//2
f 23//6 30//6 22//6
f 29//5 20//5 21//5
f 32//13 27//13 26//13
f 33//6 23//6 27//6
f 41//14 29//14 21//14
f 42//2 37//2 34//2
f 39//6 31//6 33//6
f 38//13 33//13 32//13
f 42//14 35//14 41//14
f 35//5 28//5 29//5
f 28//5 38//5 32//5
f 42//13 44//13 41//13
f 41//2 47//2 40//2
f 40//1 48//1 44//1
f 40//6 43//6 47//6
f 45//5 44//5 48//5
f 44//13 46//13 41//13
f 43//15 48//15 47//15
f 5//1 1//1 2//1
f 3//1 6//1 4//1
f 4//1 2//1 3//1
f 14//2 8//2 10//2
f 9//16 10//16 8//16
f 13//2 11//2 7//2
f 12//17 7//17 11//17
f 14//2 10//2 13//2
f 5//18 2//18 10//18
f 5//19 9//19 8//19
f 10//5 2//5 13//5
f 4//5 11//5 13//5
f 7//6 3//6 14//6
f 1//6 8//6 14//6
f 6//20 12//20 11//20
f 6//21 3//21 7//21
f 19//2 16//2 17//2
f 20//5 28//5 32//5
f 16//9 23//9 22//9
f 21//10 20//10 17//10
f 26//10 24//10 17//10
f 22//11 21//11 18//11
f 26//12 27//12 25//12
f 16//9 25//9 27//9
f 31//6 37//6 36//6
f 16//2 25//2 24//2
f 23//6 31//6 30//6
f 29//5 28//5 20//5
f 32//13 33//13 27//13
f 33//6 31//6 23//6
f 21//14 22//14 40//14
f 40//14 41//14 21//14
f 22//14 30//14 40//14
f 38//2 34//2 37//2
f 42//2 43//2 37//2
f 34//2 35//2 42//2
f 37//2 39//2 38//2
f 43//2 36//2 37//2
f 39//6 37//6 31//6
f 38//13 39//13 33//13
f 40//14 30//14 36//14
f 43//14 42//14 41//14
f 40//14 36//14 43//14
f 35//14 29//14 41//14
f 41//14 40//14 43//14
f 35//5 34//5 28//5
f 28//5 34//5 38//5
f 42//13 45//13 44//13
f 41//2 46//2 47//2
f 40//1 47//1 48//1
f 44//13 48//13 46//13
f 43//15 45//15 48//15
l 16 14
l 17 15
l 15 16
l 13 17
